<?xml version="1.0" standalone="no"?>
<!DOCTYPE svg PUBLIC "-//W3C//DTD SVG 20010904//EN"
 "http://www.w3.org/TR/2001/REC-SVG-20010904/DTD/svg10.dtd">
<svg version="1.0" xmlns="http://www.w3.org/2000/svg"
 width="200.000000pt" height="200.000000pt" viewBox="0 0 200.000000 200.000000"
 preserveAspectRatio="xMidYMid meet">
<metadata>
Created by potrace 1.11, written by Peter Selinger 2001-2013
</metadata>
<g transform="translate(0.000000,200.000000) scale(0.100000,-0.100000)"
fill="#000000" stroke="none">
<path d="M922 1787 c-40 -67 -80 -135 -90 -152 -9 -16 -19 -32 -22 -35 -5 -5
-362 -598 -368 -611 -2 -4 41 -33 95 -64 54 -32 114 -68 133 -80 19 -13 51
-32 70 -42 19 -10 84 -48 144 -83 60 -36 116 -64 124 -62 8 2 31 14 51 27 20
12 97 58 171 102 341 200 328 192 323 213 -3 11 -9 20 -14 20 -5 0 -9 5 -9 10
0 6 -22 46 -50 90 -27 44 -50 84 -50 90 0 5 -4 10 -10 10 -5 0 -10 5 -10 11 0
6 -8 23 -19 37 -10 15 -29 46 -42 69 -65 113 -345 572 -349 573 -3 0 -38 -55
-78 -123z"/>
<path d="M450 864 c0 -9 64 -99 73 -102 4 -2 7 -10 7 -17 0 -7 4 -15 8 -17 5
-1 23 -25 42 -53 19 -27 38 -54 42 -60 43 -55 78 -107 78 -115 0 -6 5 -10 10
-10 6 0 14 -8 18 -17 7 -18 33 -56 168 -242 40 -54 77 -108 83 -119 16 -31 26
-28 52 15 12 21 29 45 36 53 7 8 94 129 193 269 98 139 186 263 194 275 44 60
96 138 96 143 0 3 -12 -3 -27 -13 -73 -47 -514 -304 -523 -304 -6 0 -40 18
-76 40 -36 22 -68 40 -70 40 -2 0 -55 31 -116 68 -195 118 -288 171 -288 166z"/>
</g>
</svg>
